<?xml version="1.0" encoding="UTF-8" standalone="no"?>
<!-- Created with Inkscape (http://www.inkscape.org/) -->

<svg
   width="169.49663mm"
   height="168.93388mm"
   viewBox="0 0 169.49663 168.93388"
   version="1.1"
   id="svg1"
   xmlns:inkscape="http://www.inkscape.org/namespaces/inkscape"
   xmlns:sodipodi="http://sodipodi.sourceforge.net/DTD/sodipodi-0.dtd"
   xmlns:xlink="http://www.w3.org/1999/xlink"
   xmlns="http://www.w3.org/2000/svg"
   xmlns:svg="http://www.w3.org/2000/svg">
  <sodipodi:namedview
     id="namedview1"
     pagecolor="#ffffff"
     bordercolor="#999999"
     borderopacity="1"
     inkscape:showpageshadow="2"
     inkscape:pageopacity="0"
     inkscape:pagecheckerboard="0"
     inkscape:deskcolor="#d1d1d1"
     inkscape:document-units="mm"
     showguides="true"
     inkscape:export-bgcolor="#00000000">
    <sodipodi:guide
       position="194.76026,212.53962"
       orientation="0,-1"
       id="guide1"
       inkscape:locked="false" />
    <sodipodi:guide
       position="85.038237,189.66598"
       orientation="1,0"
       id="guide2"
       inkscape:locked="false" />
  </sodipodi:namedview>
  <defs
     id="defs1">
    <linearGradient
       id="linearGradient10"
       inkscape:collect="always">
      <stop
         style="stop-color:#ffb31d;stop-opacity:1;"
         offset="0"
         id="stop9" />
      <stop
         style="stop-color:#ffeec9;stop-opacity:0;"
         offset="1"
         id="stop10" />
    </linearGradient>
    <radialGradient
       inkscape:collect="always"
       xlink:href="#linearGradient10"
       id="radialGradient17"
       cx="114.07832"
       cy="142.5175"
       fx="114.07832"
       fy="142.5175"
       r="84.748314"
       gradientTransform="matrix(1.01561,0,0,0.99667987,-1.7807666,0.47229487)"
       gradientUnits="userSpaceOnUse" />
  </defs>
  <g
     inkscape:label="Camada 1"
     inkscape:groupmode="layer"
     id="layer1"
     transform="translate(-29.329993,-57.785105)">
    <path
       id="path4"
       style="fill:url(#radialGradient17);stroke-width:1.79148;stroke-linecap:square;paint-order:stroke markers fill"
       inkscape:transform-center-x="0.31378713"
       inkscape:transform-center-y="-42.035417"
       d="m 113.9269,57.785103 c -0.004,3.6e-5 -4.42421,0.04102 -5.09272,1.198894 l 1.6335,56.773793 -13.13512,-55.341839 c -0.945419,-0.945407 -5.225655,0.15868 -5.229655,0.15968 l -0.001,5.16e-4 c -0.0037,10e-4 -4.262455,1.184378 -4.608504,2.475818 L 103.76576,117.46932 76.753971,67.411906 c -1.157888,-0.668498 -5.00603,1.505918 -5.01003,1.507918 l -5.17e-4,5.17e-4 c -0.0033,0.002 -3.811136,2.247792 -3.811136,3.584794 L 97.734086,120.85619 58.687374,79.495923 c -1.291449,-0.346038 -4.445824,2.75032 -4.448824,2.75332 l -10e-4,5.17e-4 c -0.0027,0.0028 -3.09936,3.157379 -2.75332,4.448824 L 92.785551,125.68897 44.3637,95.843762 c -1.336988,5e-6 -3.582794,3.807437 -3.584794,3.811137 l -5.17e-4,5.17e-4 c -0.0019,0.0034 -2.176397,3.852154 -1.507918,5.010034 l 49.985063,26.97251 -54.495899,-16.29565 c -1.291448,0.34605 -2.475364,4.60451 -2.476334,4.60851 l -5.17e-4,0.001 c -9.7e-4,0.004 -1.105079,4.28426 -0.15968,5.22966 l 55.26226,13.11599 -56.856478,-1.63556 c -1.157889,0.66851 -1.198993,5.08871 -1.198893,5.09271 v 0.001 c 3e-5,0.004 0.04101,4.42421 1.198893,5.09271 l 0.206706,-0.006 c 0.10545,0.16431 0.22254,0.296 0.35605,0.3731 l 56.773796,-1.63349 -55.341842,13.13512 c -0.945399,0.94542 0.15868,5.22565 0.15968,5.22965 l 5.17e-4,0.001 c 10e-4,0.004 1.184399,4.26245 2.475818,4.6085 l 54.41735,-16.27239 -50.057409,27.01179 c -0.6685,1.15787 1.505918,5.00603 1.507918,5.01003 l 5.17e-4,5.1e-4 c 0.002,0.003 2.247795,3.81114 3.584794,3.81114 l 48.351054,-29.8018 -41.360266,39.04671 c -0.34605,1.29147 2.75032,4.44583 2.75332,4.44883 l 5.17e-4,5.1e-4 c 0.0028,0.003 3.157375,3.09936 4.448824,2.75332 l 38.990385,-41.30135 -29.845207,48.42185 c 0,1.33699 3.807137,3.58279 3.811137,3.58479 l 5.17e-4,5.2e-4 c 0.0034,0.002 3.852151,2.17641 5.01003,1.50792 l 26.972518,-49.98506 -16.295651,54.4959 c 0.34605,1.29144 4.604505,2.47533 4.608505,2.47633 l 5.16e-4,5.2e-4 c 0.0037,9.7e-4 4.284246,1.10508 5.229655,0.15968 l 13.115995,-55.26226 -1.63556,56.85647 c 0.6685,1.1579 5.08871,1.1989 5.09271,1.1989 h 0.001 c 2.9e-4,0 0.16704,-0.006 0.21549,-0.007 0.0485,9.7e-4 0.21519,0.007 0.21549,0.007 h 10e-4 c 0.004,0 4.42422,-0.041 5.09271,-1.1989 l -1.63555,-56.85647 13.11599,55.26226 c 0.94541,0.9454 5.22592,-0.15871 5.22966,-0.15968 l 5.1e-4,-5.2e-4 c 0.004,-0.001 4.26246,-1.18489 4.60851,-2.47633 l -16.29565,-54.4959 26.97251,49.98506 c 1.15788,0.66849 5.00667,-1.50602 5.01003,-1.50792 l 5.2e-4,-5.2e-4 c 0.004,-0.002 3.81114,-2.2478 3.81114,-3.58479 L 130.36,163.26342 l 38.99039,41.30135 c 1.29145,0.34604 4.44607,-2.75061 4.44882,-2.75332 l 5.2e-4,-5.1e-4 c 0.003,-0.003 3.09937,-3.15736 2.75332,-4.44883 l -41.36027,-39.04671 48.35106,29.8018 c 1.33699,0 3.58283,-3.80781 3.58479,-3.81114 l 5.2e-4,-5.1e-4 c 0.002,-0.004 2.17641,-3.85216 1.50791,-5.01003 l -50.05741,-27.01179 54.41736,16.27239 c 1.29141,-0.34605 2.47478,-4.60478 2.47581,-4.6085 l 5.2e-4,-0.001 c 0.001,-0.004 1.10508,-4.28423 0.15968,-5.22965 l -55.34184,-13.13512 56.77379,1.63349 c 0.13351,-0.0771 0.2506,-0.20879 0.35605,-0.3731 l 0.20671,0.006 c 0.14474,-0.0836 0.27202,-0.22597 0.38396,-0.41083 0.11193,-0.18485 0.20863,-0.41239 0.29197,-0.66662 0.16668,-0.50848 0.28009,-1.12368 0.3576,-1.71824 0.15502,-1.18913 0.16535,-2.29509 0.16536,-2.29702 v -0.001 c 5e-5,-0.002 -0.0103,-1.1079 -0.16536,-2.29701 -0.0775,-0.59438 -0.19099,-1.20987 -0.3576,-1.71824 -6e-5,-1.7e-4 5e-5,-3.6e-4 0,-5.2e-4 -0.0833,-0.25406 -0.18013,-0.48133 -0.29197,-0.66611 -8e-5,-1.2e-4 7e-5,-3.9e-4 0,-5.2e-4 -0.11195,-0.18485 -0.23922,-0.32674 -0.38396,-0.41031 l -56.85648,1.63556 55.26226,-13.11599 c 0.9454,-0.9454 -0.15871,-5.22592 -0.15968,-5.22966 l -5.1e-4,-0.001 c -9.7e-4,-0.004 -1.18489,-4.26246 -2.47634,-4.60851 l -54.4959,16.29565 49.98507,-26.97251 c 0.66847,-1.15788 -1.50602,-5.006671 -1.50792,-5.010034 l -5.2e-4,-5.17e-4 c -0.002,-0.0037 -2.24781,-3.811132 -3.58479,-3.811137 l -48.42185,29.845208 41.30135,-38.990386 c 0.34604,-1.291445 -2.75061,-4.446068 -2.75332,-4.448824 l -10e-4,-5.17e-4 c -0.003,-0.003 -3.15738,-3.099358 -4.44883,-2.75332 l -39.04671,41.360267 29.8018,-48.351055 c 0,-1.337002 -3.80781,-3.582833 -3.81114,-3.584794 l -5.2e-4,-5.17e-4 c -0.004,-0.002 -3.85214,-2.176416 -5.01003,-1.507918 l -27.01178,50.057414 16.27239,-54.417355 c -0.34605,-1.29144 -4.60479,-2.474784 -4.60851,-2.475818 l -0.001,-5.16e-4 c -0.004,-10e-4 -4.28423,-1.105087 -5.22965,-0.15968 L 117.689,115.7577 119.32249,58.983907 c -0.66851,-1.157874 -5.08885,-1.198858 -5.09271,-1.198894 h -0.001 c -2.2e-4,2e-6 -0.12618,0.0048 -0.15038,0.0052 -0.0242,-3.99e-4 -0.15017,-0.0052 -0.15038,-0.0052 z"
       inkscape:export-filename="light.svg"
       inkscape:export-xdpi="96"
       inkscape:export-ydpi="96" />
  </g>
</svg>
